<svg width="15" height="22" viewBox="0 0 15 22" fill="none" xmlns="http://www.w3.org/2000/svg">
<path d="M8.95666 2.27586V2.52586H9.20666H10.7239C10.8947 2.52586 11.0176 2.5817 11.0971 2.66126C11.1767 2.74082 11.2325 2.86371 11.2325 3.03448V3.7931C11.2325 4.09424 10.9816 4.30172 10.7239 4.30172H3.89632C3.72554 4.30172 3.60266 4.24589 3.52309 4.16633C3.44353 4.08676 3.3877 3.96388 3.3877 3.7931V3.03448C3.3877 2.73335 3.63857 2.52586 3.89632 2.52586H5.41356H5.66356V2.27586V1.51724C5.66356 0.82081 6.23437 0.25 6.9308 0.25H7.68942C8.38581 0.25 8.95666 0.820814 8.95666 1.51724V2.27586ZM7.93938 1.89653C7.93938 1.72593 7.88141 1.56434 7.76185 1.44477C7.64228 1.3252 7.48069 1.26724 7.31009 1.26724C7.13949 1.26724 6.9779 1.3252 6.85833 1.44477C6.73876 1.56434 6.6808 1.72593 6.6808 1.89653C6.6808 2.06713 6.73876 2.22872 6.85833 2.34829C6.9779 2.46786 7.13949 2.52582 7.31009 2.52582C7.48069 2.52582 7.64228 2.46786 7.76185 2.34829C7.88141 2.22872 7.93938 2.06713 7.93938 1.89653Z" stroke="#0B0044" stroke-width="0.5"/>
<path d="M4.65524 18.4569H4.90524V18.2069V15.931V15.681H4.65524H2.37938H2.12938V15.931V18.2069V18.4569H2.37938H4.65524ZM4.65524 14.6638H4.90524V14.4138V12.1379V11.8879H4.65524H2.37938H2.12938V12.1379V14.4138V14.6638H2.37938H4.65524ZM4.65524 10.8707H4.90524V10.6207V8.34483V8.09483H4.65524H2.37938H2.12938V8.34483V10.6207V10.8707H2.37938H4.65524ZM12.2414 17.6983H12.4914V17.4483V16.6897V16.4397H12.2414H6.17248H5.92248V16.6897V17.4483V17.6983H6.17248H12.2414ZM12.2414 13.9052H12.4914V13.6552V12.8965V12.6465H12.2414H6.17248H5.92248V12.8965V13.6552V13.9052H6.17248H12.2414ZM12.2414 10.1121H12.4914V9.86207V9.10345V8.85345H12.2414H6.17248H5.92248V9.10345V9.86207V10.1121H6.17248H12.2414ZM12.4914 3.7931V3.28448H13.0001C13.6965 3.28448 14.2673 3.8553 14.2673 4.55172V20.4828C14.2673 21.1791 13.6965 21.75 13.0001 21.75H1.62076C0.92433 21.75 0.353516 21.1792 0.353516 20.4828V4.55172C0.353516 3.85529 0.924326 3.28448 1.62076 3.28448H2.12938V3.7931C2.12938 4.76568 2.92405 5.56034 3.89662 5.56034H10.7242C11.6967 5.56034 12.4914 4.76568 12.4914 3.7931Z" stroke="#0B0044" stroke-width="0.5"/>
</svg>
