<svg width="12" height="18" viewBox="0 0 12 18" fill="none" xmlns="http://www.w3.org/2000/svg">
<path d="M7.3017 1.86207V2.11207H7.5517H8.79307C8.92247 2.11207 9.01087 2.15411 9.0663 2.20954C9.12172 2.26496 9.16376 2.35336 9.16376 2.48276V3.10345C9.16376 3.32182 8.98186 3.47414 8.79307 3.47414H3.20687C3.07748 3.47414 2.98907 3.4321 2.93365 3.37667C2.87822 3.32125 2.83618 3.23284 2.83618 3.10345V2.48276C2.83618 2.26439 3.01808 2.11207 3.20687 2.11207H4.44825H4.69825V1.86207V1.24138C4.69825 0.696676 5.14492 0.25 5.68963 0.25H6.31032C6.85499 0.25 7.3017 0.69668 7.3017 1.24138V1.86207ZM6.56028 1.55171C6.56028 1.4018 6.50922 1.25745 6.40172 1.14995C6.29422 1.04245 6.14987 0.99138 5.99996 0.99138C5.85004 0.99138 5.70569 1.04245 5.59819 1.14995C5.49069 1.25745 5.43963 1.4018 5.43963 1.55171C5.43963 1.70162 5.49069 1.84597 5.59819 1.95347C5.70569 2.06097 5.85004 2.11204 5.99996 2.11204C6.14987 2.11204 6.29422 2.06097 6.40172 1.95347C6.50922 1.84597 6.56028 1.70162 6.56028 1.55171Z" stroke="white" stroke-width="0.5"/>
<path d="M3.82753 15.1466H4.07753V14.8966V13.0345V12.7845H3.82753H1.96546H1.71546V13.0345V14.8966V15.1466H1.96546H3.82753ZM3.82753 12.0431H4.07753V11.7931V9.93103V9.68103H3.82753H1.96546H1.71546V9.93103V11.7931V12.0431H1.96546H3.82753ZM3.82753 8.93965H4.07753V8.68965V6.82759V6.57759H3.82753H1.96546H1.71546V6.82759V8.68965V8.93965H1.96546H3.82753ZM10.0344 14.5259H10.2844V14.2759V13.6552V13.4052H10.0344H5.06891H4.81891V13.6552V14.2759V14.5259H5.06891H10.0344ZM10.0344 11.4224H10.2844V11.1724V10.5517V10.3017H10.0344H5.06891H4.81891V10.5517V11.1724V11.4224H5.06891H10.0344ZM10.0344 8.31896H10.2844V8.06896V7.44827V7.19827H10.0344H5.06891H4.81891V7.44827V8.06896V8.31896H5.06891H10.0344ZM10.2844 3.10345V2.73276H10.6551C11.1998 2.73276 11.6465 3.17944 11.6465 3.72414V16.7586C11.6465 17.3033 11.1998 17.75 10.6551 17.75H1.34477C0.800074 17.75 0.353394 17.3033 0.353394 16.7586V3.72414C0.353394 3.17943 0.800069 2.73276 1.34477 2.73276H1.71546V3.10345C1.71546 3.92429 2.386 4.59483 3.20684 4.59483H8.79305C9.61386 4.59483 10.2844 3.9243 10.2844 3.10345Z" stroke="white" stroke-width="0.5"/>
</svg>
