<svg width="17" height="17" viewBox="0 0 17 17" fill="none" xmlns="http://www.w3.org/2000/svg">
<path d="M1.23954 0.5H6.55205C6.95958 0.5 7.29172 0.8322 7.29172 1.23954V4.42704C7.29172 4.83455 6.95955 5.16671 6.55205 5.16671H1.23954C0.8322 5.16671 0.5 4.83458 0.5 4.42704V1.23954C0.5 0.832165 0.832165 0.5 1.23954 0.5Z" stroke="white"/>
<path d="M1.23954 7.58328H6.55205C6.95955 7.58328 7.29172 7.91545 7.29172 8.32295V15.7605C7.29172 16.1678 6.95958 16.5 6.55205 16.5H1.23954C0.832165 16.5 0.5 16.1678 0.5 15.7605V8.32295C0.5 7.91541 0.8322 7.58328 1.23954 7.58328Z" stroke="white"/>
<path d="M10.4482 11.8333H15.7607C16.168 11.8333 16.5002 12.1654 16.5002 12.573V15.7605C16.5002 16.1678 16.168 16.5 15.7607 16.5H10.4482C10.0406 16.5 9.7085 16.1678 9.7085 15.7605V12.573C9.7085 12.1654 10.0407 11.8333 10.4482 11.8333Z" stroke="white"/>
<path d="M15.2607 0.5H15.7607C16.168 0.5 16.5002 0.832165 16.5002 1.23954V8.67705C16.5002 9.08459 16.168 9.41672 15.7607 9.41672H10.4482C10.0407 9.41672 9.7085 9.08455 9.7085 8.67705V1.23954C9.7085 0.8322 10.0406 0.5 10.4482 0.5H15.2607Z" stroke="white"/>
</svg>
