<svg width="17" height="17" viewBox="0 0 17 17" fill="none" xmlns="http://www.w3.org/2000/svg">
<path d="M1.23954 0.5H6.55205C6.95958 0.5 7.29172 0.8322 7.29172 1.23954V4.42704C7.29172 4.83455 6.95955 5.16671 6.55205 5.16671H1.23954C0.8322 5.16671 0.5 4.83458 0.5 4.42704V1.23954C0.5 0.832165 0.832165 0.5 1.23954 0.5Z" stroke="#0B0044"/>
<path d="M1.23954 7.58328H6.55205C6.95955 7.58328 7.29172 7.91545 7.29172 8.32295V15.7605C7.29172 16.1678 6.95958 16.5 6.55205 16.5H1.23954C0.832165 16.5 0.5 16.1678 0.5 15.7605V8.32295C0.5 7.91541 0.8322 7.58328 1.23954 7.58328Z" stroke="#0B0044"/>
<path d="M10.4479 11.8333H15.7604C16.1678 11.8333 16.5 12.1654 16.5 12.573V15.7605C16.5 16.1678 16.1678 16.5 15.7604 16.5H10.4479C10.0404 16.5 9.70825 16.1678 9.70825 15.7605V12.573C9.70825 12.1654 10.0404 11.8333 10.4479 11.8333Z" stroke="#0B0044"/>
<path d="M15.2604 0.5H15.7604C16.1678 0.5 16.5 0.832165 16.5 1.23954V8.67705C16.5 9.08459 16.1678 9.41672 15.7604 9.41672H10.4479C10.0404 9.41672 9.70825 9.08455 9.70825 8.67705V1.23954C9.70825 0.8322 10.0404 0.5 10.4479 0.5H15.2604Z" stroke="#0B0044"/>
</svg>
