<svg width="15" height="22" viewBox="0 0 15 22" fill="none" xmlns="http://www.w3.org/2000/svg">
<path d="M13.75 2.75H11.25V2.0625C11.25 1.683 10.97 1.375 10.625 1.375H9.26875C9.01 0.57475 8.315 0 7.5 0C6.685 0 5.99 0.57475 5.73125 1.375H4.375C4.03 1.375 3.75 1.683 3.75 2.0625V2.75H1.25C0.56125 2.75 0 3.36737 0 4.125V20.625C0 21.3826 0.56125 22 1.25 22H13.75C14.4388 22 15 21.3826 15 20.625V4.125C15 3.36737 14.4388 2.75 13.75 2.75ZM5 2.75H6.25C6.595 2.75 6.875 2.442 6.875 2.0625C6.875 1.683 7.155 1.375 7.5 1.375C7.845 1.375 8.125 1.683 8.125 2.0625C8.125 2.442 8.405 2.75 8.75 2.75H10V4.125H5V2.75ZM13.75 20.625H1.25V4.125H3.75V4.8125C3.75 5.192 4.03 5.5 4.375 5.5H10.625C10.97 5.5 11.25 5.192 11.25 4.8125V4.125H13.75V20.625Z" fill="#FAFAFA"/>
<path d="M7.31754 13.9521C7.07379 13.684 6.67754 13.6826 6.43254 13.9507L4.37504 16.2154L3.56754 15.3271C3.32379 15.059 2.92754 15.059 2.68379 15.3271C2.44004 15.5952 2.44004 16.0311 2.68379 16.2992L3.93379 17.6742C4.05504 17.8076 4.21504 17.875 4.37504 17.875C4.53504 17.875 4.69504 17.8076 4.81754 17.6742L7.31754 14.9242C7.56129 14.6561 7.56129 14.2202 7.31754 13.9521Z" fill="#FAFAFA"/>
<path d="M7.31754 8.45212C7.07379 8.18399 6.67754 8.18262 6.43254 8.45074L4.37504 10.7154L3.56754 9.82574C3.32379 9.55762 2.92754 9.55762 2.68379 9.82574C2.44004 10.0939 2.44004 10.5297 2.68379 10.7979L3.93379 12.1729C4.05504 12.3076 4.21504 12.375 4.37504 12.375C4.53504 12.375 4.69504 12.3076 4.81754 12.1742L7.31754 9.42424C7.56129 9.15612 7.56129 8.72024 7.31754 8.45212Z" fill="#FAFAFA"/>
<path d="M11.875 15.125H9.375C9.03 15.125 8.75 15.433 8.75 15.8125C8.75 16.192 9.03 16.5 9.375 16.5H11.875C12.22 16.5 12.5 16.192 12.5 15.8125C12.5 15.433 12.22 15.125 11.875 15.125Z" fill="#FAFAFA"/>
<path d="M11.875 9.625H9.375C9.03 9.625 8.75 9.933 8.75 10.3125C8.75 10.692 9.03 11 9.375 11H11.875C12.22 11 12.5 10.692 12.5 10.3125C12.5 9.933 12.22 9.625 11.875 9.625Z" fill="#FAFAFA"/>
</svg>
