<svg width="23" height="19" viewBox="0 0 23 19" fill="none" xmlns="http://www.w3.org/2000/svg">
<path d="M16.6992 10.061H16.3506C15.0651 10.061 13.8765 10.4811 12.9133 11.1919C13.0383 11.3033 13.1603 11.4185 13.2793 11.5375C14.0695 12.3277 14.6908 13.2494 15.1247 14.2757L16.6992 10.061ZM16.6992 10.061C19.8974 10.061 22.5 12.6636 22.5 15.8613V16.7031M16.6992 10.061L22.5 16.7031M22.5 16.7031H15.7536C15.6643 15.8673 15.454 15.0538 15.1248 14.2758L22.5 16.7031Z" stroke="#13036A"/>
<path d="M13.4425 17.2341L13.4425 17.2349C13.4508 17.3652 13.455 17.497 13.455 17.6298V17.933H0.5V17.6298C0.5 14.168 3.30612 11.3619 6.76793 11.3619H7.1875C8.59054 11.3619 9.88439 11.8223 10.9281 12.6001L10.9281 12.6002C12.3642 13.6702 13.3248 15.3385 13.4425 17.2341Z" stroke="#13036A"/>
<path d="M14.3069 2.69708L14.3069 2.69711C13.7308 3.32476 13.414 4.15628 13.4213 5.04364L14.3069 2.69708ZM14.3069 2.69708C14.8922 2.05927 15.6687 1.7111 16.4966 1.70394L16.5221 1.70386C18.1961 1.70386 19.6136 3.14733 19.6289 4.99242C19.6362 5.87983 19.3193 6.71136 18.7433 7.33902L18.7433 7.33903M14.3069 2.69708L18.7433 7.33903M18.7433 7.33903C18.158 7.97681 17.3815 8.32501 16.5536 8.33218C16.5532 8.33219 16.5528 8.33219 16.5524 8.33219L16.5276 8.33227C15.7086 8.33227 14.9357 7.99748 14.3455 7.37533M18.7433 7.33903L14.3455 7.37533M14.3455 7.37533C13.7592 6.75719 13.4286 5.93102 13.4213 5.04366L14.3455 7.37533Z" stroke="#13036A"/>
<path d="M3.27942 5.01802C3.27942 2.81184 4.96599 1.06689 6.97755 1.06689C8.98916 1.06689 10.6757 2.81185 10.6757 5.01802C10.6757 7.2242 8.98912 8.96915 6.97755 8.96915C4.96599 8.96915 3.27942 7.2242 3.27942 5.01802Z" stroke="#13036A"/>
</svg>
