<svg width="18" height="17" viewBox="0 0 18 17" fill="none" xmlns="http://www.w3.org/2000/svg">
<path d="M0.859272 7.22708L8.93689 0.147286C9.16102 -0.0490953 9.49586 -0.0490953 9.71994 0.147286L17.7976 7.22708C18.0442 7.44327 18.0689 7.81855 17.8527 8.0653C17.6365 8.3119 17.2612 8.33666 17.0146 8.12042L16.3891 7.57228V16.4061C16.3891 16.7341 16.1232 17 15.7952 17H11.2939H7.36294H2.86171C2.53367 17 2.26777 16.7341 2.26777 16.4061V7.57233L1.64232 8.12051C1.52957 8.21925 1.38997 8.26781 1.25108 8.26781C1.08592 8.26781 0.921612 8.19934 0.804202 8.06535C0.587864 7.81855 0.612572 7.44332 0.859272 7.22708ZM10.6999 15.8121V10.9194H7.95693V15.8122L10.6999 15.8121ZM3.45556 6.53573V15.8121H6.7689V10.3254C6.7689 9.99742 7.03489 9.73147 7.36285 9.73147H11.2938C11.6218 9.73147 11.8877 9.99742 11.8877 10.3254V15.8122H15.2012V6.53573C15.2012 6.53421 15.2014 6.53278 15.2014 6.53131L9.32842 1.38373L3.45537 6.53126C3.45532 6.53283 3.45556 6.53421 3.45556 6.53573Z" fill="black"/>
<path d="M10.6589 5.56526C10.6589 5.8933 10.393 6.1592 10.065 6.1592H8.59202C8.26402 6.1592 7.99807 5.8933 7.99807 5.56526C7.99807 5.23721 8.26402 4.97131 8.59202 4.97131H10.065C10.393 4.97131 10.6589 5.23721 10.6589 5.56526Z" fill="black"/>
</svg>
