<svg width="25" height="20" viewBox="0 0 25 20" fill="none" xmlns="http://www.w3.org/2000/svg">
<path d="M15.5 10.0938C14.5391 10.0938 14.077 10.625 12.5 10.625C10.923 10.625 10.4643 10.0938 9.5 10.0938C7.01562 10.0938 5 12.0926 5 14.5562V15.4062C5 16.2861 5.71987 17 6.60714 17H18.3929C19.2801 17 20 16.2861 20 15.4062V14.5562C20 12.0926 17.9844 10.0938 15.5 10.0938ZM18.3929 15.4062H6.60714V14.5562C6.60714 12.9758 7.90625 11.6875 9.5 11.6875C9.98884 11.6875 10.7824 12.2188 12.5 12.2188C14.231 12.2188 15.0078 11.6875 15.5 11.6875C17.0937 11.6875 18.3929 12.9758 18.3929 14.5562V15.4062ZM12.5 9.5625C15.1618 9.5625 17.3214 7.4209 17.3214 4.78125C17.3214 2.1416 15.1618 0 12.5 0C9.83817 0 7.67857 2.1416 7.67857 4.78125C7.67857 7.4209 9.83817 9.5625 12.5 9.5625ZM12.5 1.59375C14.2712 1.59375 15.7143 3.0248 15.7143 4.78125C15.7143 6.5377 14.2712 7.96875 12.5 7.96875C10.7288 7.96875 9.28571 6.5377 9.28571 4.78125C9.28571 3.0248 10.7288 1.59375 12.5 1.59375Z" fill="black"/>
<line x1="1.01496" y1="6.18043" x2="23.692" y2="18.2992" stroke="black" stroke-width="1.5" stroke-linecap="round" stroke-linejoin="round"/>
</svg>
