<svg width="15" height="17" viewBox="0 0 15 17" fill="none" xmlns="http://www.w3.org/2000/svg">
<path d="M14.3014 13.3735C14.1171 12.2688 13.3425 11.3623 12.28 11.0081L9.9206 10.2217V9.87097H9.37221V10.6171L10.3034 10.9274L9.02042 13.2795L8.18934 13.7193C8.12737 13.7132 8.06485 13.7097 8.00124 13.7097H7.9146L9.33876 11.0991L8.85728 10.8367L7.45286 13.4114L6.04844 10.8367L5.56695 11.0991L6.99111 13.7097H6.90447C6.84086 13.7097 6.77834 13.7132 6.71637 13.7193L5.88529 13.2795L4.60234 10.9274L5.5335 10.6171V9.87097H4.98511V10.2217L2.62595 11.0081C1.56345 11.3623 0.788855 12.2688 0.604597 13.3735L0 17H4.98511H5.25931H9.6464H9.9206H14.9057L14.3014 13.3735ZM10.8317 11.1035L12.1062 11.5282C12.1492 11.5425 12.189 11.563 12.231 11.5795L9.89839 12.8144L10.8317 11.1035ZM7.17866 14.2581H7.72705V14.8065H7.17866V14.2581ZM2.79952 11.5282L4.07397 11.1035L5.00732 12.8144L2.67476 11.5795C2.71671 11.563 2.75647 11.5425 2.79952 11.5282ZM4.98511 15.629V16.4516H3.09455L3.33858 14.0113L2.79294 13.9567L2.54342 16.4519H0.647645L1.14531 13.464C1.25169 12.826 1.60239 12.2724 2.10334 11.8978L5.97852 13.9493C5.38681 14.2764 4.98511 14.9065 4.98511 15.629ZM5.5335 16.4239V15.629C5.5335 14.9671 6.00539 14.4133 6.63027 14.2858V14.8065V15.0806C6.63027 15.7428 6.15839 16.2967 5.5335 16.4239ZM6.59902 16.4516C6.89405 16.1634 7.09777 15.7823 7.15919 15.3548H7.74679C7.80821 15.7823 8.01194 16.1634 8.30697 16.4516H6.59902ZM9.37221 16.4239C8.74732 16.2964 8.27544 15.7428 8.27544 15.0806V14.8065V14.2858C8.90032 14.4133 9.37221 14.9669 9.37221 15.629V16.4239ZM12.3623 16.4516L12.1128 13.9565L11.5671 14.011L11.8112 16.4513H9.9206V15.6288C9.9206 14.9063 9.5189 14.2762 8.92719 13.9488L12.8024 11.8973C13.3033 12.2718 13.654 12.8254 13.7604 13.4635L14.2581 16.4516H12.3623Z" fill="white"/>
<path d="M2.79152 6.03226C2.79152 6.73584 3.3262 7.31055 4.00949 7.38787C4.14933 7.86908 4.40762 8.31026 4.77175 8.67439L5.84083 9.74347C6.09967 10.0023 6.44406 10.1452 6.81038 10.1452H8.09525C8.46157 10.1452 8.80596 10.0023 9.0648 9.74347L10.1339 8.67439C10.498 8.31026 10.756 7.86881 10.8961 7.38787C11.5794 7.31055 12.1141 6.73584 12.1141 6.03226C12.1141 5.58779 11.898 5.19597 11.569 4.94535L12.1744 1.91935H10.9255C10.1742 0.732371 8.85943 0 7.45281 0C6.0462 0 4.73144 0.732371 3.98015 1.91935H2.7312L3.33662 4.94535C3.00759 5.19597 2.79152 5.58779 2.79152 6.03226ZM10.4689 6.54171C10.4689 7.20087 10.212 7.82055 9.74617 8.28668L8.67709 9.35576C8.52162 9.51123 8.31515 9.59677 8.09525 9.59677H6.81038C6.59048 9.59677 6.38373 9.51123 6.22854 9.35576L5.15946 8.28668C4.6936 7.82055 4.43668 7.20087 4.43668 6.54171V5.20968H10.4689V6.54171ZM11.0044 6.80823C11.0121 6.72021 11.0173 6.63137 11.0173 6.54171V5.26013C11.3357 5.37365 11.5657 5.67526 11.5657 6.03226C11.5657 6.39392 11.3294 6.69855 11.0044 6.80823ZM7.45281 0.548387C8.55151 0.548387 9.58659 1.06387 10.257 1.91935H4.64864C5.31904 1.06387 6.35412 0.548387 7.45281 0.548387ZM11.5054 2.46774L11.0667 4.66129H3.83867L3.72899 4.1129H10.4689V3.56452H3.61959L3.40023 2.46774H11.5054ZM3.8883 5.26013V6.54171C3.8883 6.63137 3.89351 6.72021 3.90119 6.8085C3.57627 6.69855 3.33991 6.39392 3.33991 6.03226C3.33991 5.67526 3.56996 5.37365 3.8883 5.26013Z" fill="white"/>
</svg>
