<svg width="23" height="12" viewBox="0 0 23 12" fill="none" xmlns="http://www.w3.org/2000/svg">
<path d="M3.46502 7.00853L3.75872 7.16832L3.99375 7.42741C4.31921 7.7862 4.51708 8.25711 4.51708 8.77373C4.51708 9.88093 3.61595 10.7821 2.50875 10.7821C1.40133 10.7821 0.5 9.88113 0.5 8.77415C0.5 7.66695 1.40113 6.76582 2.50833 6.76582C2.85528 6.76582 3.18056 6.85377 3.46502 7.00853ZM5.91194 5.00881L5.75436 4.71918C5.5996 4.43473 5.51165 4.10944 5.51165 3.7625C5.51165 2.6553 6.41278 1.75417 7.51998 1.75417C8.62719 1.75417 9.52832 2.6553 9.52832 3.7625C9.52832 4.10947 9.44036 4.43451 9.28552 4.71815L9.12433 5.01343L8.8663 5.2475C8.50752 5.57296 8.0366 5.77083 7.51998 5.77083C7.00334 5.77083 6.53262 5.57296 6.17445 5.24741L5.91194 5.00881ZM11.4697 7.85091L11.7059 7.59054L11.998 7.4316C12.2825 7.27684 12.6078 7.18889 12.9547 7.18889C13.4713 7.18889 13.9421 7.38676 14.3002 7.71231L14.5627 7.95091L14.7203 8.24054C14.8751 8.52499 14.963 8.85028 14.963 9.19722C14.963 10.3044 14.0619 11.2056 12.9547 11.2056C11.8475 11.2056 10.9464 10.3044 10.9464 9.19722C10.9464 8.6806 11.1442 8.20969 11.4697 7.85091ZM19.1342 3.99324L18.8717 3.75464L18.7141 3.46502C18.5593 3.18056 18.4714 2.85528 18.4714 2.50833C18.4714 1.40113 19.3725 0.5 20.4797 0.5C21.5869 0.5 22.488 1.40113 22.488 2.50833C22.488 3.61554 21.5869 4.51667 20.4797 4.51667C19.9631 4.51667 19.4923 4.31879 19.1342 3.99324Z" stroke="white"/>
</svg>
