<svg width="28" height="17" viewBox="0 0 28 17" fill="none" xmlns="http://www.w3.org/2000/svg">
<path d="M23.1903 11.961C22.0584 11.961 21.0945 12.6294 20.5781 13.5832H19.7688V4.47218H20.0663C19.9105 4.63997 19.8212 4.86737 19.8212 5.09687V8.02694C19.8212 8.47715 20.1647 8.91938 20.68 8.91938H25.6893C26.2039 8.91938 26.5484 8.47775 26.5484 8.02694V7.99115L27.2217 9.17894V11.6278C27.186 11.6232 27.1494 11.6208 27.1118 11.6208C26.6087 11.6208 26.2771 12.0531 26.2771 12.4869V13.1808C26.2771 13.3201 26.3111 13.4588 26.3738 13.5832H25.8026C25.2864 12.6294 24.3229 11.961 23.1903 11.961ZM2.83737 12.3203C2.35963 12.5861 1.95916 12.9841 1.67382 13.4625C1.61875 13.3613 1.58501 13.2394 1.58501 13.1023V12.9979C1.58501 12.5798 1.88419 12.3203 2.16073 12.3203H2.83737ZM6.92722 13.7792C6.64278 13.16 6.17695 12.6428 5.5973 12.3203H17.9084V13.7792H6.92722ZM17.9084 0.5V10.6177H0.5V0.5H17.9084Z" stroke="white"/>
</svg>
