<svg width="23" height="17" viewBox="0 0 23 17" fill="none" xmlns="http://www.w3.org/2000/svg">
<path d="M6.9001 8.5C8.17035 8.5 9.2001 7.32889 9.2001 5.88461C9.2001 4.44017 8.17035 3.26923 6.9001 3.26923C5.62984 3.26923 4.6001 4.44017 4.6001 5.88461C4.60177 7.32826 5.63054 8.4981 6.9001 8.5ZM6.9001 4.28604C7.67891 4.28604 8.31035 5.00391 8.31035 5.88967C8.31035 6.77527 7.67891 7.4933 6.9001 7.4933C6.12115 7.4933 5.48985 6.77527 5.48985 5.88967C5.49012 5.00407 6.12129 4.28636 6.9001 4.28604Z" fill="black"/>
<path d="M6.89993 9.15397C5.93704 9.14622 5.01284 9.56769 4.34171 10.3205C3.65891 11.08 3.28564 12.1125 3.28564 13.2344C3.28636 13.5082 3.48977 13.73 3.74084 13.7308H10.059C10.3101 13.73 10.5135 13.5082 10.5142 13.2344C10.5142 12.1125 10.141 11.08 9.45815 10.3205C8.78702 9.56769 7.86296 9.14622 6.89993 9.15397ZM4.22791 12.738C4.30586 12.0889 4.57414 11.4849 4.99264 11.0155C5.49635 10.4597 6.18328 10.1468 6.89993 10.1468C7.61659 10.1468 8.30351 10.4597 8.80722 11.0155C9.22486 11.4854 9.49315 12.0893 9.57195 12.738H4.22791Z" fill="black"/>
<path d="M20.6042 0H2.39583C1.07288 0.000600283 0.000598958 1.07526 0 2.40113V14.5989C0.000598958 15.9247 1.07288 16.9994 2.39583 17H20.6042C21.9271 16.9994 22.9994 15.9247 23 14.5989V2.40113C22.9994 1.07526 21.9271 0.000600283 20.6042 0ZM22.0417 14.5989C22.0394 15.3935 21.397 16.0373 20.6042 16.0395H2.39583C1.60296 16.0373 0.960579 15.3935 0.958333 14.5989V2.40113C0.960579 1.60651 1.60296 0.962703 2.39583 0.960452H20.6042C21.397 0.962703 22.0394 1.60651 22.0417 2.40113V14.5989Z" fill="black"/>
<path d="M19.2328 7.84619H13.6242C13.3584 7.84619 13.1428 8.13879 13.1428 8.50004C13.1428 8.86129 13.3584 9.15388 13.6242 9.15388H19.2328C19.4987 9.15388 19.7143 8.86129 19.7143 8.50004C19.7143 8.13879 19.4987 7.84619 19.2328 7.84619Z" fill="black"/>
<path d="M19.2328 11.1154H13.6242C13.3584 11.1154 13.1428 11.2617 13.1428 11.4423C13.1428 11.623 13.3584 11.7693 13.6242 11.7693H19.2328C19.4987 11.7693 19.7143 11.623 19.7143 11.4423C19.7143 11.2617 19.4987 11.1154 19.2328 11.1154Z" fill="black"/>
<path d="M19.2328 5.23077H13.6242C13.3584 5.23077 13.1428 5.37707 13.1428 5.5577C13.1428 5.73832 13.3584 5.88462 13.6242 5.88462H19.2328C19.4987 5.88462 19.7143 5.73832 19.7143 5.5577C19.7143 5.37707 19.4987 5.23077 19.2328 5.23077Z" fill="black"/>
</svg>
