<svg xmlns="http://www.w3.org/2000/svg" width="1920" height="793" viewBox="0 0 1920 793"><defs><style>.a{fill:#e2f7e9;}.b{opacity:0.1;}.c{fill:#01b140;}</style></defs><g transform="translate(0 -120)"><rect class="a" width="1920" height="793" transform="translate(0 120)"/><g class="b" transform="translate(1367.629 681.168)"><path class="c" d="M75.4,88.21h0a1.884,1.884,0,0,1,1.884,1.884v28.948a26.5,26.5,0,0,1-26.5,26.5h0a1.884,1.884,0,0,1-1.884-1.884v-28.94a26.5,26.5,0,0,1,26.5-26.5Z" transform="translate(-12.916 -23.487)"/><path class="c" d="M75.4,8.78h0a1.884,1.884,0,0,1,1.884,1.884V39.619a26.5,26.5,0,0,1-26.5,26.5h0A1.884,1.884,0,0,1,48.9,64.232V35.292A26.5,26.5,0,0,1,75.4,8.78Z" transform="translate(-12.916 -2.318)"/><path class="c" d="M1.884,0h0a26.5,26.5,0,0,1,26.5,26.5V55.43A1.884,1.884,0,0,1,26.5,57.344h0A26.5,26.5,0,0,1,0,30.847V1.884A1.884,1.884,0,0,1,1.884,0Z" transform="translate(28.381 159.832) rotate(180)"/><path class="c" d="M1.884,0h0a26.5,26.5,0,0,1,26.5,26.5V55.452A1.884,1.884,0,0,1,26.5,57.344h0A26.5,26.5,0,0,1,0,30.847V1.884A1.884,1.884,0,0,1,1.884,0Z" transform="translate(28.381 101.977) rotate(180)"/><path class="c" d="M75.394,167.815h0a1.884,1.884,0,0,1,1.884,1.884v8.243a26.5,26.5,0,0,1-26.5,26.5h0a1.884,1.884,0,0,1-1.892-1.9V194.3a26.5,26.5,0,0,1,26.5-26.5Z" transform="translate(-12.913 -44.615)"/><path class="c" d="M1.884,0h0a26.5,26.5,0,0,1,26.5,26.5V34.74a1.884,1.884,0,0,1-1.884,1.9h0A26.5,26.5,0,0,1,0,10.142V1.884A1.884,1.884,0,0,1,1.884,0Z" transform="translate(28.381 36.639) rotate(180)"/></g></g></svg>