<?xml version="1.0" encoding="utf-8"?>
<!-- Generator: Adobe Illustrator 23.0.1, SVG Export Plug-In . SVG Version: 6.00 Build 0)  -->
<svg version="1.1" id="Layer_1" xmlns="http://www.w3.org/2000/svg" x="0px" y="0px"
     viewBox="0 0 652.7 218.2" style="enable-background:new 0 0 652.7 218.2;" xml:space="preserve">
<style type="text/css">
	.st0{fill:#fff;}
	.st1{fill:none;stroke:#FFFFFF;stroke-miterlimit:10;}
	.st2{fill:#fff;}
	.st3{fill:none;}
	.st4{fill:none;stroke:#fff;stroke-width:0.25;stroke-miterlimit:10;}
	.st5{fill:#FFFFFF;}
</style>
<g>
	<path class="st0" d="M325.2,62.4v81.3h-13.1v-7.6c-2.3,2.8-5.1,4.9-8.4,6.2c-3.3,1.4-7,2.1-11,2.1c-5.6,0-10.7-1.2-15.2-3.7
		c-4.5-2.5-8-6-10.6-10.6c-2.6-4.6-3.8-9.8-3.8-15.7c0-5.9,1.3-11.1,3.8-15.7c2.6-4.5,6.1-8,10.6-10.5c4.5-2.5,9.5-3.7,15.2-3.7
		c3.9,0,7.4,0.7,10.6,2c3.2,1.3,5.9,3.3,8.2,5.9v-30H325.2z M303.2,130.5c2.6-1.5,4.7-3.6,6.2-6.4c1.5-2.8,2.3-6,2.3-9.6
		c0-3.6-0.8-6.9-2.3-9.6c-1.5-2.8-3.6-4.9-6.2-6.4c-2.6-1.5-5.6-2.2-8.9-2.2c-3.3,0-6.2,0.8-8.9,2.2c-2.6,1.5-4.7,3.6-6.2,6.4
		c-1.5,2.8-2.3,6-2.3,9.6c0,3.7,0.8,6.9,2.3,9.6c1.5,2.8,3.6,4.9,6.2,6.4c2.6,1.5,5.6,2.2,8.9,2.2
		C297.6,132.7,300.6,132,303.2,130.5z"/>
	<path class="st0" d="M370.4,84.5v13c-1.2-0.2-2.2-0.3-3.2-0.3c-5.3,0-9.5,1.6-12.5,4.7c-3,3.1-4.5,7.6-4.5,13.4v28.4h-13.7V85.2h13
		v8.5C353.6,87.6,360.5,84.5,370.4,84.5z"/>
	<path class="st0" d="M377.3,141.9c-1.8-1.7-2.6-3.9-2.6-6.5c0-2.7,0.9-4.9,2.6-6.6c1.7-1.7,3.9-2.5,6.4-2.5c2.6,0,4.7,0.8,6.4,2.5
		c1.7,1.7,2.6,3.9,2.6,6.6c0,2.6-0.9,4.8-2.6,6.5c-1.8,1.7-3.9,2.6-6.4,2.6C381.2,144.4,379.1,143.6,377.3,141.9z"/>
	<path class="st0" d="M449.5,90.7c4.6,4.1,6.8,10.3,6.8,18.7v34.3h-12.9v-7.1c-1.7,2.6-4.1,4.5-7.2,5.9c-3.1,1.4-6.8,2-11.2,2
		s-8.2-0.7-11.5-2.2c-3.3-1.5-5.8-3.6-7.6-6.2c-1.8-2.7-2.7-5.7-2.7-9c0-5.3,2-9.5,5.9-12.6c3.9-3.2,10.1-4.8,18.5-4.8h15.1v-0.9
		c0-4.1-1.2-7.2-3.7-9.4c-2.4-2.2-6.1-3.3-10.9-3.3c-3.3,0-6.5,0.5-9.7,1.5c-3.2,1-5.9,2.4-8,4.3l-5.4-10c3.1-2.3,6.8-4.1,11.1-5.4
		c4.3-1.2,8.9-1.9,13.7-1.9C438.3,84.5,444.9,86.6,449.5,90.7z M437,132.1c2.7-1.6,4.5-3.8,5.6-6.7v-6.8h-14.1
		c-7.9,0-11.8,2.6-11.8,7.8c0,2.5,1,4.5,3,5.9c2,1.5,4.7,2.2,8.2,2.2C431.3,134.5,434.3,133.7,437,132.1z"/>
	<path class="st0" d="M529.7,85.2v49.6c0,20.6-10.5,30.9-31.5,30.9c-5.6,0-10.9-0.7-16-2.1c-5-1.4-9.2-3.5-12.5-6.2l6.1-10.3
		c2.6,2.1,5.8,3.8,9.7,5.1c3.9,1.3,7.9,1.9,11.9,1.9c6.4,0,11.1-1.5,14.1-4.4c3-2.9,4.5-7.4,4.5-13.4v-3.1c-2.3,2.6-5.2,4.5-8.5,5.8
		c-3.4,1.3-7,2-11.1,2c-5.5,0-10.6-1.2-15.1-3.6c-4.5-2.4-8-5.7-10.6-10c-2.6-4.3-3.9-9.2-3.9-14.8c0-5.5,1.3-10.5,3.9-14.7
		c2.6-4.3,6.1-7.6,10.6-9.9c4.5-2.3,9.5-3.5,15.1-3.5c4.2,0,8.1,0.7,11.6,2.1c3.5,1.4,6.4,3.5,8.7,6.4v-7.8H529.7z M511.2,124.8
		c3.3-3.1,5-7.1,5-12.1c0-4.9-1.7-8.9-5-11.9c-3.3-3.1-7.6-4.6-12.8-4.6c-5.3,0-9.5,1.5-12.9,4.6c-3.3,3.1-5,7-5,11.9
		c0,5,1.7,9,5,12.1c3.3,3.1,7.6,4.7,12.9,4.7C503.6,129.4,507.9,127.9,511.2,124.8z"/>
	<path class="st0" d="M574.9,84.5v13c-1.2-0.2-2.2-0.3-3.2-0.3c-5.3,0-9.5,1.6-12.5,4.7c-3,3.1-4.5,7.6-4.5,13.4v28.4H541V85.2h13
		v8.5C558,87.6,565,84.5,574.9,84.5z"/>
	<path class="st0" d="M598.5,140.6c-4.7-2.6-8.5-6.1-11.1-10.7c-2.7-4.6-4-9.7-4-15.5c0-5.8,1.3-10.9,4-15.4
		c2.7-4.5,6.4-8.1,11.1-10.6c4.7-2.6,10.1-3.8,16-3.8c6,0,11.3,1.3,16.1,3.8c4.7,2.6,8.4,6.1,11.1,10.6c2.7,4.5,4,9.7,4,15.4
		c0,5.8-1.3,10.9-4,15.5c-2.7,4.6-6.4,8.1-11.1,10.7c-4.7,2.6-10.1,3.8-16.1,3.8C608.6,144.4,603.3,143.2,598.5,140.6z M627,127.7
		c3.3-3.4,4.9-7.8,4.9-13.2c0-5.5-1.6-9.9-4.9-13.2c-3.3-3.4-7.4-5-12.5-5c-5,0-9.2,1.7-12.4,5c-3.2,3.4-4.9,7.8-4.9,13.2
		c0,5.5,1.6,9.9,4.9,13.2c3.2,3.4,7.4,5,12.4,5C619.6,132.7,623.7,131,627,127.7z"/>
</g>
<path class="st1" d="M170.8,95c-0.1,0.2-0.2,0.5-0.3,0.7"/>
<path class="st1" d="M109.4,137.9c-0.2,0-0.3,0-0.3,0"/>
<path class="st1" d="M107.9,139.6c0,0-0.3,0-0.8,0"/>
<path class="st0" d="M170.9,87.9c0,32.8-25.7,59.6-58.1,61.4c-0.1-1.2-0.4-2.5-0.7-3.8c0,0,52.5-15.8,58.4-63.8
	C170.7,83.6,170.9,85.7,170.9,87.9z"/>
<path class="st2" d="M170.5,81.6c-5.9,48-58.4,63.8-58.4,63.8c-0.2-1-0.5-2-0.9-3c15-30.5,32.7-37.5,33.3-37.7
	c-22.1,5.9-33.5,24.5-36.5,30c-5-10.2-12-18.9-12-18.9s10.6-24.4,42.4-30.3c0,0,24.2-3.6,28.1-20.2C168.6,70.4,170,75.9,170.5,81.6z
	"/>
<path class="st3" d="M144.5,104.7c-0.6,0.2-18.3,7.3-33.3,37.7c-0.8-2.6-2-5.2-3.2-7.8C111,129.2,122.5,110.6,144.5,104.7z"/>
<path class="st4" d="M112.8,149.2"/>
<path class="st4" d="M86,141.1"/>
<path class="st2" d="M108.4,145.4c0,0,0,0-0.1,0c-0.1,0-0.3,0-0.5,0c-1.8-0.2-6.2-0.7-11.9-1.8c-0.2-0.1-0.5-0.1-0.7-0.1
	c-12.7-2.7-31.2-8.9-41-22.4c0,0,0,0,0,0c-1.4-2.1-2.7-4.4-3.8-6.7c-2.9-5.9-4.9-12.4-5.9-19.2c0.1-0.6,0.2-0.9,0.2-0.9
	c3.8,8.3,15.8,9.2,23.5,10.3c10,1.4,19,6,25.8,13.5c1,1.1,1.9,2.3,2.8,3.4c0,0,0,0,0,0c0,0,0.1,0.1,0.1,0.2c0.1,0.1,0.2,0.2,0.2,0.3
	c0,0,0.1,0.1,0.1,0.1c0,0.1,0.1,0.1,0.1,0.2c0.1,0.2,0.3,0.4,0.4,0.6c3.5,4.9,6.3,10.3,8.5,15.8
	C106.5,139.3,107.5,142.6,108.4,145.4z"/>
<path class="st0" d="M109.2,149.8c-0.7,0-1.3,0-2,0c-17.5,0-33.3-7.1-44.8-18.5h0c-3.1-3.1-5.9-6.6-8.4-10.3
	c9.8,13.5,28.3,19.7,41,22.4c0.2,0,0.5,0.1,0.7,0.1c5.7,1.1,10.1,1.7,11.9,1.8c0.2,0,0.5,0,0.6,0.1
	C108.7,146.8,109,148.3,109.2,149.8z"/>
<path class="st5" d="M77.5,126.2c0.4,0,14,1,30.8,18.4c0-2,0.2-4,0.5-6C105.7,135.6,93.8,125.4,77.5,126.2z"/>
<path class="st2" d="M107.5,0C48.1,0,0,48.2,0,107.5c0,59.4,48.1,107.5,107.5,107.5c59.4,0,107.5-48.1,107.5-107.5
	C215.1,48.2,166.9,0,107.5,0z M107.5,200.1c-51.1,0-92.6-41.5-92.6-92.6c0-51.1,41.5-92.6,92.6-92.6s92.6,41.5,92.6,92.6
	C200.1,158.7,158.7,200.1,107.5,200.1z"/>
</svg>
