<svg xmlns="http://www.w3.org/2000/svg" width="134.482" height="32" viewBox="0 0 134.482 32"><defs><style>.a{fill:#264c5b;font-size:10px;font-family:SFProText-Semibold, SF Pro Text;font-weight:600;}.b{letter-spacing:-0.01em;}.c{letter-spacing:-0.03em;}.d{fill:#f29603;}.e{fill:#01b140;}</style></defs><g transform="translate(-352 -108)"><text class="a" transform="translate(374.482 122)"><tspan class="b" x="0" y="0">Az</tspan><tspan y="0">erbaijan </tspan><tspan class="c" y="0">A</tspan><tspan y="0">gricultu</tspan><tspan class="b" y="0">r</tspan><tspan y="0">al</tspan><tspan class="b" x="0" y="13">As</tspan><tspan y="13">sociations</tspan></text><g transform="translate(352 108)"><path class="d" d="M54.212,88.21h0a.378.378,0,0,1,.378.378v5.8A5.312,5.312,0,0,1,49.278,99.7h0a.378.378,0,0,1-.378-.378v-5.8a5.312,5.312,0,0,1,5.312-5.312Z" transform="translate(-41.686 -75.262)"/><path class="d" d="M54.212,8.78h0a.378.378,0,0,1,.378.378v5.805a5.312,5.312,0,0,1-5.312,5.312h0A.378.378,0,0,1,48.9,19.9V14.1A5.312,5.312,0,0,1,54.212,8.78Z" transform="translate(-41.686 -7.484)"/><path class="e" d="M.378,0h0A5.312,5.312,0,0,1,5.69,5.312v5.8a.378.378,0,0,1-.378.384h0A5.312,5.312,0,0,1,0,6.184V.378A.378.378,0,0,1,.378,0Z" transform="translate(5.69 32) rotate(180)"/><path class="e" d="M.378,0h0A5.312,5.312,0,0,1,5.69,5.312v5.805a.378.378,0,0,1-.378.379h0A5.312,5.312,0,0,1,0,6.184V.378A.378.378,0,0,1,.378,0Z" transform="translate(5.69 20.426) rotate(180)"/><path class="d" d="M54.2,167.8h0a.378.378,0,0,1,.378.378v1.653a5.312,5.312,0,0,1-5.312,5.312h0a.378.378,0,0,1-.379-.381v-1.653A5.312,5.312,0,0,1,54.2,167.8Z" transform="translate(-41.677 -143.147)"/><path class="e" d="M.378,0h0A5.312,5.312,0,0,1,5.69,5.312V6.965a.378.378,0,0,1-.378.381h0A5.312,5.312,0,0,1,0,2.033V.378A.378.378,0,0,1,.378,0Z" transform="translate(5.69 7.346) rotate(180)"/></g></g></svg>