<svg xmlns="http://www.w3.org/2000/svg" width="156" height="103" viewBox="0 0 156 103"><defs><style>.a{fill:#fff;}</style></defs><g transform="translate(0 0)"><g transform="translate(0 0)"><path class="a" d="M6.29,275.277H2.642l-.851,2.532H0L3.515,267.9h1.99l3.523,9.909h-1.9Zm-3.234-1.4H5.879l-1.349-4.087H4.4Z" transform="translate(0 -194.048)"/><path class="a" d="M37.23,283.019l3.988-4.955v-.118H37.266V276.57h5.987v1.162L39.4,282.593v.118h3.914v1.376H37.23Z" transform="translate(-26.982 -200.331)"/><path class="a" d="M71.161,281.659c-.308,1.376-1.566,2.216-3.339,2.216-2.2,0-3.543-1.462-3.543-3.878s1.354-3.936,3.529-3.936,3.427,1.423,3.427,3.79v.55H65.989v.088a1.866,1.866,0,0,0,1.883,2.034,1.673,1.673,0,0,0,1.676-.864ZM66,279.239h3.537a1.706,1.706,0,0,0-1.731-1.825A1.788,1.788,0,0,0,66,279.239Z" transform="translate(-46.587 -199.961)"/><path class="a" d="M95.77,276.283h1.652v1.167h.118a1.989,1.989,0,0,1,1.985-1.291,2.842,2.842,0,0,1,.707.077v1.577a4,4,0,0,0-.873-.094,1.717,1.717,0,0,0-1.874,1.737v4.338H95.77Z" transform="translate(-69.409 -200.033)"/><path class="a" d="M118.987,275.289h-.116v1.186H117.22V266.06h1.7v4.112h.118a2.45,2.45,0,0,1,2.287-1.318c1.9,0,3.083,1.478,3.083,3.881s-1.189,3.878-3.083,3.878A2.549,2.549,0,0,1,118.987,275.289Zm-.083-2.568c0,1.5.729,2.43,1.9,2.43s1.869-.919,1.869-2.43-.707-2.43-1.869-2.43S118.9,271.224,118.9,272.721Z" transform="translate(-84.955 -192.715)"/><path class="a" d="M148.08,281.6c0-1.36,1.021-2.141,2.849-2.252l1.927-.118v-.63c0-.735-.493-1.148-1.415-1.148-.782,0-1.316.275-1.475.784h-1.607c.138-1.327,1.376-2.172,3.165-2.172,1.927,0,3.028.941,3.028,2.535v5.128H152.9v-1.029h-.116a2.474,2.474,0,0,1-2.224,1.153A2.252,2.252,0,0,1,148.08,281.6Zm4.784-.625v-.6l-1.7.11c-.955.061-1.4.4-1.4,1.016s.55,1.01,1.3,1.01A1.646,1.646,0,0,0,152.864,280.971Z" transform="translate(-107.32 -199.961)"/><path class="a" d="M178.47,265.727a1.016,1.016,0,1,1,1.016,1.024A1.016,1.016,0,0,1,178.47,265.727Zm.171,2.265h1.7V275.5h-1.7Z" transform="translate(-129.345 -191.744)"/><path class="a" d="M191.417,275.788c0,1.539-.842,2.287-2.527,2.287-.088,0-.363-.014-.41-.022v-1.338h.22c.754,0,1.021-.275,1.021-.961v-7.762h1.7Zm-1.852-10.061a1.016,1.016,0,1,1,1.016,1.024A1.016,1.016,0,0,1,189.564,265.727Z" transform="translate(-136.6 -191.741)"/><path class="a" d="M205.29,281.6c0-1.36,1.024-2.141,2.852-2.252l1.927-.118v-.63c0-.735-.493-1.148-1.415-1.148-.782,0-1.318.275-1.475.784h-1.607c.138-1.327,1.376-2.172,3.165-2.172,1.927,0,3.028.941,3.028,2.535v5.128h-1.651v-1.029H210a2.474,2.474,0,0,1-2.224,1.153A2.255,2.255,0,0,1,205.29,281.6Zm4.787-.625v-.6l-1.7.11c-.955.061-1.4.4-1.4,1.016s.551,1.01,1.3,1.01A1.646,1.646,0,0,0,210.077,280.971Z" transform="translate(-148.783 -199.961)"/><path class="a" d="M236.24,276.226h1.652v1.208h.116a2.234,2.234,0,0,1,2.232-1.354c1.676,0,2.59,1.01,2.59,2.8v4.855h-1.7v-4.456c0-1.145-.479-1.723-1.517-1.723a1.6,1.6,0,0,0-1.652,1.806v4.374h-1.7Z" transform="translate(-171.214 -199.976)"/><path class="a" d="M285.372,275.277h-3.647l-.851,2.532H279.08L282.6,267.9h1.99l3.523,9.909h-1.9Zm-3.234-1.4h2.821l-1.346-4.088H283.5Z" transform="translate(-202.262 -194.048)"/><path class="a" d="M314.831,284.514h1.709c.11.515.713.845,1.651.845,1.167,0,1.847-.55,1.847-1.492V282.45h-.118a2.454,2.454,0,0,1-2.293,1.241c-1.894,0-3.077-1.467-3.077-3.727s1.189-3.8,3.1-3.8a2.552,2.552,0,0,1,2.329,1.327h.116v-1.2h1.652v7.536c0,1.74-1.376,2.83-3.578,2.83C316.232,286.656,314.968,285.805,314.831,284.514Zm5.23-4.553c0-1.437-.721-2.348-1.9-2.348s-1.861.911-1.861,2.348.672,2.342,1.861,2.342,1.9-.908,1.9-2.331Z" transform="translate(-227.969 -200.033)"/><path class="a" d="M348.26,276.283h1.652v1.167h.116a1.992,1.992,0,0,1,1.985-1.291,2.842,2.842,0,0,1,.707.077v1.577a3.983,3.983,0,0,0-.873-.094,1.717,1.717,0,0,0-1.874,1.737v4.338h-1.7Z" transform="translate(-252.4 -200.033)"/><path class="a" d="M368.94,265.713a1.018,1.018,0,1,1,1.016,1.024A1.018,1.018,0,0,1,368.94,265.713Zm.173,2.265h1.7v7.512h-1.7Z" transform="translate(-267.388 -191.729)"/><path class="a" d="M387.339,278.738a1.559,1.559,0,0,0-1.652-1.25c-1.167,0-1.861.9-1.861,2.458s.7,2.5,1.861,2.5a1.518,1.518,0,0,0,1.652-1.2h1.63a2.981,2.981,0,0,1-3.27,2.629c-2.26,0-3.578-1.456-3.578-3.928s1.327-3.887,3.578-3.887a2.993,2.993,0,0,1,3.276,2.678Z" transform="translate(-276.94 -199.961)"/><path class="a" d="M419.224,284.122h-1.652v-1.195h-.116a2.214,2.214,0,0,1-2.246,1.346,2.457,2.457,0,0,1-2.6-2.78V276.61h1.7v4.456c0,1.148.474,1.709,1.492,1.709a1.6,1.6,0,0,0,1.709-1.792V276.61h1.7Z" transform="translate(-299.038 -200.36)"/><path class="a" d="M444.48,266.06h1.7v10.416h-1.7Z" transform="translate(-322.135 -192.715)"/><path class="a" d="M459.015,269.92v1.891h1.607v1.36h-1.607v3.686c0,.743.316,1.071,1.029,1.071a5.249,5.249,0,0,0,.578-.033v1.332a4.95,4.95,0,0,1-.892.083c-1.726,0-2.411-.584-2.411-2.04v-4.1H456.13v-1.36h1.189V269.92Z" transform="translate(-330.579 -195.512)"/><path class="a" d="M485,284.122h-1.652v-1.195h-.107a2.213,2.213,0,0,1-2.243,1.346,2.459,2.459,0,0,1-2.6-2.78V276.61h1.7v4.456c0,1.148.473,1.709,1.489,1.709a1.6,1.6,0,0,0,1.709-1.792V276.61H485Z" transform="translate(-346.711 -200.36)"/><path class="a" d="M510,276.283h1.652v1.167h.116a1.989,1.989,0,0,1,1.985-1.291,2.862,2.862,0,0,1,.707.077v1.577a4,4,0,0,0-.873-.094,1.717,1.717,0,0,0-1.875,1.737v4.338H510Z" transform="translate(-369.621 -200.033)"/><path class="a" d="M529.37,281.6c0-1.36,1.024-2.141,2.849-2.252l1.927-.118v-.63c0-.735-.5-1.148-1.415-1.148-.782,0-1.318.275-1.475.784h-1.607c.138-1.327,1.376-2.172,3.165-2.172,1.927,0,3.028.941,3.028,2.535v5.128H534.19v-1.029h-.116a2.479,2.479,0,0,1-2.227,1.153A2.253,2.253,0,0,1,529.37,281.6Zm4.787-.625v-.6l-1.7.11c-.955.061-1.4.4-1.4,1.016s.551,1.01,1.3,1.01A1.642,1.642,0,0,0,534.157,280.971Z" transform="translate(-383.659 -199.961)"/><path class="a" d="M560.56,266.06h1.7v10.416h-1.7Z" transform="translate(-406.264 -192.715)"/><path class="a" d="M132.542,344.517H128.9l-.851,2.532H126.25l3.518-9.909h1.99l3.523,9.909h-1.9Zm-3.234-1.4h2.821l-1.346-4.088h-.118Z" transform="translate(-91.499 -244.201)"/><path class="a" d="M165.809,345.3c1.786,0,2.9.79,3.028,2.158h-1.6c-.124-.531-.625-.867-1.42-.867s-1.36.372-1.36.914c0,.427.355.685,1.1.859l1.324.3c1.437.322,2.1.939,2.1,2.045,0,1.442-1.327,2.4-3.2,2.4s-3.055-.809-3.185-2.177h1.682c.165.55.694.886,1.544.886s1.456-.377,1.456-.933c0-.427-.322-.694-1.038-.851l-1.332-.311c-1.442-.328-2.122-.994-2.122-2.128C162.8,346.241,164.04,345.3,165.809,345.3Z" transform="translate(-117.844 -250.114)"/><path class="a" d="M193.459,345.3c1.786,0,2.9.79,3.028,2.158h-1.6c-.124-.531-.625-.867-1.42-.867s-1.36.372-1.36.914c0,.427.355.685,1.1.859l1.324.3c1.437.322,2.1.939,2.1,2.045,0,1.442-1.327,2.4-3.2,2.4s-3.055-.809-3.185-2.177h1.682c.165.55.694.886,1.544.886s1.456-.377,1.456-.933c0-.427-.322-.694-1.038-.851l-1.332-.311c-1.442-.328-2.122-.994-2.122-2.128C190.456,346.241,191.687,345.3,193.459,345.3Z" transform="translate(-137.883 -250.114)"/><path class="a" d="M218.41,349.209c0-2.425,1.376-3.909,3.611-3.909s3.611,1.478,3.611,3.909-1.376,3.906-3.611,3.906S218.41,351.645,218.41,349.209Zm5.472,0c0-1.566-.68-2.477-1.861-2.477s-1.869.914-1.869,2.477.68,2.477,1.869,2.477,1.861-.906,1.861-2.477Z" transform="translate(-158.292 -250.114)"/><path class="a" d="M254.791,347.948a1.562,1.562,0,0,0-1.651-1.25c-1.167,0-1.861.9-1.861,2.458s.7,2.5,1.861,2.5a1.517,1.517,0,0,0,1.651-1.2h1.618a2.978,2.978,0,0,1-3.267,2.629c-2.26,0-3.592-1.456-3.592-3.928s1.327-3.887,3.578-3.887a2.993,2.993,0,0,1,3.276,2.678Z" transform="translate(-180.86 -250.093)"/><path class="a" d="M279.836,334.8a1.018,1.018,0,1,1,.493.926A1.019,1.019,0,0,1,279.836,334.8Zm.173,2.265h1.7v7.512h-1.7Z" transform="translate(-202.809 -241.727)"/><path class="a" d="M292.77,350.835c0-1.36,1.024-2.141,2.849-2.252l1.927-.118v-.63c0-.735-.5-1.148-1.415-1.148-.782,0-1.318.275-1.475.784h-1.607c.138-1.327,1.376-2.172,3.165-2.172,1.927,0,3.014.941,3.014,2.535v5.128h-1.652v-1.029h-.118a2.471,2.471,0,0,1-2.224,1.153A2.249,2.249,0,0,1,292.77,350.835Zm4.787-.625v-.589l-1.7.11c-.955.061-1.4.4-1.4,1.016s.551,1.01,1.3,1.01A1.658,1.658,0,0,0,297.557,350.211Z" transform="translate(-212.184 -250.114)"/><path class="a" d="M324.255,339.138v1.883h1.6V342.4h-1.6v3.688c0,.743.314,1.071,1.029,1.071a5.2,5.2,0,0,0,.575-.033v1.329a4.9,4.9,0,0,1-.892.083c-1.723,0-2.411-.584-2.411-2.04v-4.1H321.37v-1.376h1.186V339.13Z" transform="translate(-232.912 -245.643)"/><path class="a" d="M343.33,334.967a1.016,1.016,0,1,1,1.016,1.024A1.016,1.016,0,0,1,343.33,334.967Zm.171,2.265h1.7v7.512h-1.682Z" transform="translate(-248.827 -241.896)"/><path class="a" d="M356.43,349.209c0-2.425,1.376-3.909,3.611-3.909s3.611,1.478,3.611,3.909-1.376,3.906-3.611,3.906S356.43,351.645,356.43,349.209Zm5.472,0c0-1.566-.68-2.477-1.861-2.477s-1.869.914-1.869,2.477.68,2.477,1.869,2.477S361.9,350.78,361.9,349.209Z" transform="translate(-258.321 -250.114)"/><path class="a" d="M388.92,345.451h1.652v1.2h.116a2.246,2.246,0,0,1,2.232-1.354c1.676,0,2.59,1.01,2.59,2.8v4.861h-1.7V348.52c0-1.145-.482-1.723-1.517-1.723a1.6,1.6,0,0,0-1.652,1.806v4.374h-1.7Z" transform="translate(-281.868 -250.114)"/><path class="a" d="M422.009,345.3c1.786,0,2.907.79,3.028,2.158h-1.6c-.124-.531-.625-.867-1.42-.867s-1.36.372-1.36.914c0,.427.358.685,1.1.859l1.324.3c1.437.322,2.1.939,2.1,2.045,0,1.442-1.327,2.4-3.2,2.4s-3.055-.809-3.185-2.177h1.707c.165.55.694.886,1.544.886s1.456-.377,1.456-.933c0-.427-.322-.694-1.035-.851l-1.335-.311c-1.44-.328-2.119-.994-2.119-2.128C419,346.241,420.231,345.3,422.009,345.3Z" transform="translate(-303.524 -250.114)"/><path class="a" d="M297.388,75.44h0a.6.6,0,0,1,.6.6V85.3a8.478,8.478,0,0,1-8.478,8.478h0a.6.6,0,0,1-.6-.6v-9.26A8.478,8.478,0,0,1,297.388,75.44Z" transform="translate(-209.386 -54.64)"/><path class="a" d="M297.388,7.51h0a.6.6,0,0,1,.6.6v9.262a8.478,8.478,0,0,1-8.478,8.478h0a.6.6,0,0,1-.6-.592V15.988a8.478,8.478,0,0,1,8.478-8.478Z" transform="translate(-209.386 -5.443)"/><path class="a" d="M.6,0h0A8.478,8.478,0,0,1,9.081,8.478v9.26a.6.6,0,0,1-.6.6h0A8.478,8.478,0,0,1,0,9.862V.6A.6.6,0,0,1,.6,0Z" transform="translate(77.096 51.279) rotate(180)"/><path class="a" d="M.6,0h0A8.478,8.478,0,0,1,9.081,8.478v9.26a.6.6,0,0,1-.6.6h0A8.478,8.478,0,0,1,0,9.862V.611A.6.6,0,0,1,.6,0Z" transform="translate(77.096 32.67) rotate(180)"/><path class="a" d="M297.388,143.53h0a.6.6,0,0,1,.6.6v2.637a8.478,8.478,0,0,1-8.478,8.478h0a.6.6,0,0,1-.6-.6v-2.637A8.478,8.478,0,0,1,297.388,143.53Z" transform="translate(-209.386 -103.962)"/><path class="a" d="M.6,0h0A8.478,8.478,0,0,1,9.081,8.478v2.637a.6.6,0,0,1-.6.6h0A8.478,8.478,0,0,1,0,3.24V.6A.6.6,0,0,1,.6,0Z" transform="translate(77.096 11.718) rotate(180)"/></g></g></svg>