<svg xmlns="http://www.w3.org/2000/svg" width="135.602" height="72" viewBox="0 0 135.602 72"><defs><style>.a{fill:#264c5b;font-size:14px;font-family:SFProText-Semibold, SF Pro Text;font-weight:600;}.b{letter-spacing:-0.01em;}.c{letter-spacing:-0.03em;}.d{fill:#f29603;}.e{fill:#01b140;}</style></defs><g transform="translate(-352 -108)"><text class="a" transform="translate(399.602 130)"><tspan class="b" x="0" y="0">Az</tspan><tspan y="0">erbaijan</tspan><tspan class="c" x="0" y="19">A</tspan><tspan y="19">gricultu</tspan><tspan class="b" y="19">r</tspan><tspan y="19">al</tspan><tspan class="b" x="0" y="38">As</tspan><tspan y="38">sociations</tspan></text><g transform="translate(352 108)"><path class="d" d="M60.836,88.21h0a.849.849,0,0,1,.849.849V102.1a11.936,11.936,0,0,1-11.936,11.936h0a.849.849,0,0,1-.849-.849V100.149A11.936,11.936,0,0,1,60.836,88.213Z" transform="translate(-32.69 -59.054)"/><path class="d" d="M60.836,8.78h0a.849.849,0,0,1,.849.849V22.672A11.936,11.936,0,0,1,49.749,34.608h0a.849.849,0,0,1-.849-.849V20.723A11.936,11.936,0,0,1,60.836,8.78Z" transform="translate(-32.69 -5.869)"/><path class="e" d="M.849,0h0A11.936,11.936,0,0,1,12.785,11.936V24.97a.849.849,0,0,1-.849.862h0A11.936,11.936,0,0,1,0,13.9V.849A.849.849,0,0,1,.849,0Z" transform="translate(12.785 72) rotate(180)"/><path class="e" d="M.849,0h0A11.936,11.936,0,0,1,12.785,11.936V24.98a.849.849,0,0,1-.849.852h0A11.936,11.936,0,0,1,0,13.9V.849A.849.849,0,0,1,.849,0Z" transform="translate(12.785 45.938) rotate(180)"/><path class="d" d="M60.829,167.807h0a.849.849,0,0,1,.849.849v3.713A11.936,11.936,0,0,1,49.742,184.3h0a.849.849,0,0,1-.852-.855v-3.713A11.936,11.936,0,0,1,60.826,167.8Z" transform="translate(-32.683 -112.308)"/><path class="e" d="M.849,0h0A11.936,11.936,0,0,1,12.785,11.936V15.65a.849.849,0,0,1-.849.855h0A11.936,11.936,0,0,1,0,4.569V.849A.849.849,0,0,1,.849,0Z" transform="translate(12.785 16.505) rotate(180)"/></g></g></svg>