<svg xmlns="http://www.w3.org/2000/svg" width="15.001" height="15.001" viewBox="0 0 15.001 15.001"><defs><style>.a{fill:none;stroke:#fff;stroke-linecap:round;stroke-linejoin:round;opacity:0.5;}</style></defs><path class="a" d="M16.111,12.482v2.108a1.407,1.407,0,0,1-1.535,1.405A13.948,13.948,0,0,1,8.5,13.838,13.713,13.713,0,0,1,4.279,9.622,13.885,13.885,0,0,1,2.118,3.531,1.406,1.406,0,0,1,3.518,2H5.63A1.407,1.407,0,0,1,7.038,3.208a9.006,9.006,0,0,0,.493,1.974,1.4,1.4,0,0,1-.317,1.482l-.894.892a11.252,11.252,0,0,0,4.223,4.215l.894-.892a1.41,1.41,0,0,1,1.485-.316,9.053,9.053,0,0,0,1.978.492A1.406,1.406,0,0,1,16.111,12.482Z" transform="translate(-1.611 -1.5)"/></svg>