<svg xmlns="http://www.w3.org/2000/svg" width="48.001" height="48.001" viewBox="0 0 48.001 48.001"><defs><style>.a{fill:#fff;}</style></defs><path class="a" d="M-14692,48a23.845,23.845,0,0,1-9.342-1.886,23.923,23.923,0,0,1-7.63-5.144,23.915,23.915,0,0,1-5.144-7.629A23.845,23.845,0,0,1-14716,24a23.841,23.841,0,0,1,1.887-9.342,23.909,23.909,0,0,1,5.144-7.628,23.922,23.922,0,0,1,7.63-5.143A23.851,23.851,0,0,1-14692,0a23.851,23.851,0,0,1,9.342,1.886,23.915,23.915,0,0,1,7.629,5.143,23.944,23.944,0,0,1,5.143,7.628A23.862,23.862,0,0,1-14668,24a23.866,23.866,0,0,1-1.886,9.342,23.95,23.95,0,0,1-5.143,7.629,23.915,23.915,0,0,1-7.629,5.144A23.845,23.845,0,0,1-14692,48Zm-3-30.181a1,1,0,0,0-1,1V29.177a1,1,0,0,0,1,1,1,1,0,0,0,.536-.159l8.136-5.178a1,1,0,0,0,.463-.847.993.993,0,0,0-.463-.84l-8.136-5.178A1,1,0,0,0-14695,17.82Z" transform="translate(14716.001)"/></svg>