<svg xmlns="http://www.w3.org/2000/svg" width="14" height="14" viewBox="0 0 14 14">
    <path id="progress-clock" fill="#f2a845" d="M9.734 2.03v1.416a5.608 5.608 0 0 1 0 11.133v1.4a7.01 7.01 0 0 0 0-13.951m-1.4.021A6.9 6.9 0 0 0 4.59 3.593l1 1.038a5.613 5.613 0 0 1 2.741-1.178v-1.4M3.6 4.582a6.926 6.926 0 0 0-1.55 3.736h1.4A5.617 5.617 0 0 1 4.6 5.584l-1-1M2.057 9.721a7.035 7.035 0 0 0 1.551 3.737l1-1A5.607 5.607 0 0 1 3.46 9.721h-1.4m3.537 3.765l-1 .96a7.017 7.017 0 0 0 3.74 1.584v-1.4A5.618 5.618 0 0 1 5.6 13.487m3.783-7.973v3.681l3.158 1.872-.526.862-3.684-2.208V5.514z" transform="translate(-2.05 -2.03)"/>
</svg>
