<svg xmlns="http://www.w3.org/2000/svg" width="188" height="135" viewBox="0 0 188 135">
  <g id="success" transform="translate(-667.586 -6835.049)">
    <g id="Group_70" data-name="Group 70" transform="translate(728.841 6835.049)">
      <circle id="Ellipse_11" data-name="Ellipse 11" cx="24.211" cy="24.211" r="24.211" transform="translate(8.663 11.53)" fill="#fff"/>
      <path id="Path_222" data-name="Path 222" d="M584.928,441.97a32.359,32.359,0,1,1-32.359-32.36,32.359,32.359,0,0,1,32.359,32.36Zm-36.1,17.128,24-24a2.085,2.085,0,0,0,0-2.953l-2.953-2.932a2.082,2.082,0,0,0-2.949,0l-19.577,19.578-9.141-9.163a2.094,2.094,0,0,0-2.953,0L532.3,442.6a2.094,2.094,0,0,0,0,2.953l13.572,13.567a2.085,2.085,0,0,0,2.953,0Z" transform="translate(-520.21 -409.61)" fill="#1bc5be"/>
    </g>
    <g id="Group_74" data-name="Group 74" transform="translate(824.27 6955.729)">
      <ellipse id="Ellipse_9" data-name="Ellipse 9" cx="15.658" cy="2.648" rx="15.658" ry="2.648" transform="translate(0 8.899)" fill="#c9f7f5"/>
      <path id="Path_179" data-name="Path 179" d="M894.374,829.844a4.559,4.559,0,0,0,1.492-2.255,2.01,2.01,0,0,0-1.044-2.294c-.958-.366-1.984.3-2.757.97s-1.667,1.437-2.683,1.293a4.081,4.081,0,0,0,1.267-3.82,1.61,1.61,0,0,0-.354-.779c-.53-.569-1.5-.327-2.13.125-2.025,1.421-2.589,4.176-2.6,6.647a12.494,12.494,0,0,1-.039-2.726,2.813,2.813,0,0,0-1.028-2.426,3.092,3.092,0,0,0-1.558-.366,3.244,3.244,0,0,0-2.547.724,2.51,2.51,0,0,0,.1,3.115,9.921,9.921,0,0,0,2.636,2.111,5.841,5.841,0,0,1,1.879,1.8,1.626,1.626,0,0,1,.139.323h5.689a15.989,15.989,0,0,0,3.536-2.436Z" transform="translate(-872.24 -822.627)" fill="#c9f7f5"/>
    </g>
    <g id="Group_71" data-name="Group 71" transform="translate(726.239 6960.681)">
      <ellipse id="Ellipse_9-2" data-name="Ellipse 9" cx="10.333" cy="1.748" rx="10.333" ry="1.748" transform="translate(0 5.873)" fill="#c9f7f5"/>
      <path id="Path_179-2" data-name="Path 179" d="M889.447,827.39a3.01,3.01,0,0,0,.984-1.488,1.327,1.327,0,0,0-.689-1.514c-.632-.242-1.308.2-1.819.64a2.43,2.43,0,0,1-1.771.853,2.693,2.693,0,0,0,.835-2.521,1.06,1.06,0,0,0-.234-.514c-.348-.375-.987-.216-1.406.082-1.336.94-1.709,2.755-1.717,4.387a8.259,8.259,0,0,1-.026-1.8,1.858,1.858,0,0,0-.679-1.6,2.04,2.04,0,0,0-1.028-.241,2.142,2.142,0,0,0-1.681.478,1.657,1.657,0,0,0,.067,2.056,6.519,6.519,0,0,0,1.74,1.392,3.855,3.855,0,0,1,1.241,1.183,1.066,1.066,0,0,1,.093.213h3.755a10.55,10.55,0,0,0,2.333-1.609Z" transform="translate(-874.84 -822.627)" fill="#c9f7f5"/>
    </g>
    <g id="Group_72" data-name="Group 72" transform="translate(667.586 6960.681)">
      <ellipse id="Ellipse_12" data-name="Ellipse 12" cx="10.333" cy="1.748" rx="10.333" ry="1.748" transform="translate(0 5.873)" fill="#c9f7f5"/>
      <path id="Path_223" data-name="Path 223" d="M889.447,827.39a3.01,3.01,0,0,0,.984-1.488,1.327,1.327,0,0,0-.689-1.514c-.632-.242-1.308.2-1.819.64a2.43,2.43,0,0,1-1.771.853,2.693,2.693,0,0,0,.835-2.521,1.06,1.06,0,0,0-.234-.514c-.348-.375-.987-.216-1.406.082-1.336.94-1.709,2.755-1.717,4.387a8.259,8.259,0,0,1-.026-1.8,1.858,1.858,0,0,0-.679-1.6,2.04,2.04,0,0,0-1.028-.241,2.142,2.142,0,0,0-1.681.478,1.657,1.657,0,0,0,.067,2.056,6.519,6.519,0,0,0,1.74,1.392,3.855,3.855,0,0,1,1.241,1.183,1.066,1.066,0,0,1,.093.213h3.755a10.55,10.55,0,0,0,2.333-1.609Z" transform="translate(-874.84 -822.627)" fill="#c9f7f5"/>
    </g>
    <path id="Path_178" data-name="Path 178" d="M738.351,130.664s-14.8-.892-13.069,9.49a2.53,2.53,0,0,0,1.316,2.667s.027-.779,1.522-.51a6.819,6.819,0,0,0,1.608.078,3.333,3.333,0,0,0,1.966-.81h0s4.167-1.721,5.786-8.528c0,0,1.2-1.483,1.148-1.865l-2.5,1.067a4.492,4.492,0,0,1,.183,3.3s-.082-3.236-.561-3.162c-.1,0-1.3.626-1.3.626s1.472,3.142.362,5.424c0,0,.42-3.871-.822-5.2l-1.76,1.044s1.717,3.244.553,5.892c0,0,.3-4.061-.923-5.642l-1.593,1.246s1.612,3.2.631,5.394c0,0-.132-4.727-.977-5.086a9.772,9.772,0,0,0-1.609,1.737s1.106,2.336.421,3.547c0,0-.421-3.15-.779-3.167a10.49,10.49,0,0,0-1.534,3.5,7.6,7.6,0,0,1,1.2-3.715,4.19,4.19,0,0,0-2.13,1.1s.218-1.476,2.473-1.6a10.661,10.661,0,0,1,1.456-1.682,9.121,9.121,0,0,0-3.6.418s1.2-1.39,4.011-.759l1.558-1.285a13.382,13.382,0,0,0-4.207.04s1.441-1.23,4.63-.335l1.714-1.024a15.654,15.654,0,0,0-4.019-.348s1.585-.853,4.521.07l1.227-.549s-1.844-.362-2.387-.421-.569-.206-.569-.206a6.382,6.382,0,0,1,3.466.389A16.022,16.022,0,0,0,738.351,130.664Z" transform="translate(-23.737 6810.635)" fill="#c9f7f5"/>
  </g>
</svg>
